<?xml version="1.0" encoding="UTF-8" standalone="no"?>
<svg
   xmlns:dc="http://purl.org/dc/elements/1.1/"
   xmlns:cc="http://creativecommons.org/ns#"
   xmlns:rdf="http://www.w3.org/1999/02/22-rdf-syntax-ns#"
   xmlns:svg="http://www.w3.org/2000/svg"
   xmlns="http://www.w3.org/2000/svg"
   xmlns:sodipodi="http://sodipodi.sourceforge.net/DTD/sodipodi-0.dtd"
   xmlns:inkscape="http://www.inkscape.org/namespaces/inkscape"
   version="1.1"
   x="0px"
   y="0px"
   viewBox="0 0 78 78"
   enable-background="new 0 0 100 100"
   xml:space="preserve"
   id="svg2"
   inkscape:version="0.91 r13725"
   sodipodi:docname="icon-mask.svg"
   width="78"
   height="78"><metadata
     id="metadata14"><rdf:RDF><cc:Work
         rdf:about=""><dc:format>image/svg+xml</dc:format><dc:type
           rdf:resource="http://purl.org/dc/dcmitype/StillImage" /><dc:title></dc:title></cc:Work></rdf:RDF></metadata><defs
     id="defs12" /><sodipodi:namedview
     pagecolor="#ffffff"
     bordercolor="#666666"
     borderopacity="1"
     objecttolerance="10"
     gridtolerance="10"
     guidetolerance="10"
     inkscape:pageopacity="0"
     inkscape:pageshadow="2"
     inkscape:window-width="1271"
     inkscape:window-height="720"
     id="namedview10"
     showgrid="false"
     inkscape:zoom="1.888"
     inkscape:cx="-35.406494"
     inkscape:cy="50.859184"
     inkscape:window-x="0"
     inkscape:window-y="0"
     inkscape:window-maximized="0"
     inkscape:current-layer="svg2"
     fit-margin-top="0"
     fit-margin-left="0"
     fit-margin-right="0"
     fit-margin-bottom="0" /><path
     d="m 74.038373,26.393615 c 0.003,-1.2 -0.134,-2.39 -0.513,-3.53 -1.104,-3.33 -2.96,-6.1 -6.07,-7.9 -7.226,-4.17 -14.458,-8.3299995 -21.667,-12.5299995 -1.96,-1.1400001 -4.048,-1.72000009 -6.292,-1.78000009 -2.474,-0.1 -4.824,0.37999999 -7,1.65000009 -7.277,4.22 -14.599,8.3699995 -21.843,12.6499995 -4.3189998,2.55 -6.5919998,6.48 -6.6459998,11.49 -0.088,8.38 -0.021,16.76 -0.027,25.15 -10e-4,1.29 0.158,2.55 0.586,3.77 1.14,3.24 2.981,5.92 6.0279998,7.68 7.17,4.13 14.342,8.26 21.487,12.43 1.877,1.09 3.855,1.74 6.012,1.86 2.635,0.14 5.141,-0.28 7.461,-1.63 7.229,-4.2 14.459,-8.39 21.712,-12.54 2.023,-1.16 3.585,-2.74 4.772,-4.72 1.146,-1.9 1.953,-3.94 1.973,-6.19 0.037,-4.41 0.011,-8.83 0.011,-13.24 l 0.012,0 c 0,-4.21 -0.005,-8.41 0.004,-12.62 z m -20.436,32.69 c -0.26,0.18 -0.556,0.27 -0.849,0.27 -0.477,0 -0.946,-0.23 -1.237,-0.65 l -8.319,-12.1 c -1.815,0.86 -3.797,1.31 -5.811,1.31 -4.808,0 -9.164,-2.45 -11.653,-6.55 -1.891,-3.11 -2.458,-6.77 -1.596,-10.31 0.862,-3.54 3.05,-6.53 6.159,-8.42 2.135,-1.29 4.577,-1.98 7.063,-1.98 4.809,0 9.169,2.45 11.664,6.56 1.891,3.11 2.456,6.77 1.594,10.31 -0.736,3.01 -2.445,5.63 -4.862,7.5 l 8.233,11.98 c 0.469,0.68 0.296,1.61 -0.386,2.08 z m -7.142,-30.31 c -1.946,-3.21 -5.349,-5.12 -9.101,-5.12 -1.937,0 -3.841,0.54 -5.506,1.55 -2.424,1.47 -4.13,3.8 -4.802,6.56 -0.673,2.76 -0.23,5.62 1.244,8.04 1.942,3.2 5.34,5.11 9.09,5.11 1.938,0 3.844,-0.53 5.511,-1.55 2.427,-1.47 4.133,-3.8 4.806,-6.56 0.673,-2.75 0.233,-5.61 -1.242,-8.03 z"
     id="path4"
     inkscape:connector-curvature="0"
     style="clip-rule:evenodd;fill-rule:evenodd" /></svg>